<svg id="Layer_1" data-name="Layer 1" xmlns="http://www.w3.org/2000/svg" viewBox="0 0 226.59 78.78">
  <defs>
    <style>
      .cls-1 {
        fill: #005596;
      }
    </style>
  </defs>
  <title>grcc-logo</title>
  <g>
    <path class="cls-1" d="M77,44.12H52V55.54h9.42V67.47a14,14,0,0,1-5.7,1c-11.77,0-20.16-7.18-20.16-19,0-14.1,10.73-19.54,23.79-19.54a30.67,30.67,0,0,1,14.7,3.89l1.3-13.15C69.51,18.43,61.12,18,57.14,18,35,18,19,26.74,19,49.48s18.59,31,34.68,31A89.15,89.15,0,0,0,77,77.68V44.12Zm7.61,35.29h16.09V55.54h3.37c6,0,8.05,2.59,11.33,13l3.46,10.9h16.78L129.79,63c-3-7.35-3.37-11.93-8.56-13.32v-.17c7.78-1.81,11.59-7.18,11.59-15.22,0-10.38-8.74-15.22-19.46-15.22H84.64V79.41Zm16.09-49H105c6.14,0,11.76,1,11.76,6.66,0,6.84-6.57,7-11.76,7h-4.24V30.45Zm88.13,34.94a42.47,42.47,0,0,1-15.05,3.12c-11.76,0-20.15-7.18-20.15-19,0-11.24,7.44-19.54,18.85-19.54a31.67,31.67,0,0,1,15.74,4.23l1.3-13.06A62.75,62.75,0,0,0,171.65,18c-19.9,0-34.6,10.46-34.6,31.48,0,22.83,18.6,31,34.68,31A66.72,66.72,0,0,0,189.64,78l-.78-12.63Zm55.95,0a42.42,42.42,0,0,1-15.05,3.12c-11.76,0-20.15-7.18-20.15-19,0-11.24,7.44-19.54,18.86-19.54a31.69,31.69,0,0,1,15.74,4.23l1.3-13.06A62.82,62.82,0,0,0,227.6,18C207.71,18,193,28.46,193,49.48c0,22.83,18.59,31,34.68,31A66.58,66.58,0,0,0,245.59,78l-.78-12.63Z" transform="translate(-19 -18)"/>
    <path class="cls-1" d="M29.35,88.1a6.48,6.48,0,0,0-2.59-.45,4.41,4.41,0,0,0-4.67,4.53,4.35,4.35,0,0,0,4.66,4.6,7.87,7.87,0,0,0,2.69-.39V91.8H26.32v1h1.86v2.68a5.35,5.35,0,0,1-1.42.15,3.46,3.46,0,0,1,.06-6.91,4.11,4.11,0,0,1,2.43.61l.1-1.27Zm1.81,8.53h1.27V92.71h.76c.67,0,1.08,0,1.48.86L36,96.63h1.44l-1.67-3.51c-.28-.55-.47-.74-.86-.89v0a2.06,2.06,0,0,0,1.82-2c0-2.11-1.68-2.39-3.43-2.39H31.16v8.83Zm1.27-7.71h1.21c1.16,0,1.77.5,1.77,1.3S34.7,91.6,33.5,91.6H32.43V88.92Zm5.25,7.71H39l.9-2.22h4.33l.89,2.22H46.5L42.77,87.8H41.44l-3.76,8.83Zm6.14-3.26H40.31L42.06,89l1.76,4.38Zm3.25,3.26h1.27V89.37h0l4,7.26H54V87.8H52.71v7.11h0l-3.9-7.11H47.07v8.83Zm8.88,0h2.61c2.91,0,4.7-1.53,4.7-4.49,0-2.72-2.09-4.34-4.7-4.34H56v8.83Zm1.26-7.71h1.48a3.08,3.08,0,0,1,3.23,3.27c0,2.28-1.2,3.33-3.38,3.33H57.21v-6.6Zm11.3,7.71h1.26V92.71h.76c.67,0,1.09,0,1.48.86l1.35,3.06H74.8l-1.66-3.51c-.28-.55-.47-.74-.86-.89v0a2.07,2.07,0,0,0,1.82-2c0-2.11-1.68-2.39-3.43-2.39H68.51v8.83Zm1.26-7.71H71c1.16,0,1.77.5,1.77,1.3s-.71,1.38-1.91,1.38H69.77V88.92ZM75,96.63h1.33l.9-2.22h4.32l.9,2.22h1.38L80.12,87.8H78.79L75,96.63Zm6.15-3.26H77.65L79.41,89l1.76,4.38Zm4.58-4.45h1.07c.79,0,2,.4,2,1.52A1.59,1.59,0,0,1,87,92H85.75V88.92Zm-1.27,7.71h1.27V93.1H87c1.59,0,3.12-.69,3.12-2.65S88.6,87.8,86.8,87.8H84.48v8.83Zm7.3,0H93V87.8H91.78v8.83Zm3.19,0h2.6c2.91,0,4.71-1.53,4.71-4.49,0-2.72-2.09-4.34-4.71-4.34H95v8.83Zm1.26-7.71h1.48a3.08,3.08,0,0,1,3.23,3.27c0,2.28-1.21,3.33-3.38,3.33H96.23v-6.6Zm12-1a5.71,5.71,0,0,0-1.88-.32c-1.6,0-2.83.84-2.83,2.4,0,2.75,3.79,2.21,3.79,4.18a1.58,1.58,0,0,1-1.73,1.44,5.3,5.3,0,0,1-1.84-.43l-.12,1.18a5.88,5.88,0,0,0,1.81.36c1.77,0,3.22-.74,3.22-2.63,0-2.91-3.79-2.51-3.79-4.21,0-.92.83-1.18,1.54-1.18a4,4,0,0,1,1.66.37l.17-1.16ZM120,88a4.82,4.82,0,0,0-2-.38,4.4,4.4,0,0,0-4.67,4.53,4.35,4.35,0,0,0,4.66,4.6,5.48,5.48,0,0,0,2-.31l-.08-1.23a4.28,4.28,0,0,1-1.92.43,3.46,3.46,0,0,1,.06-6.91,3.51,3.51,0,0,1,1.82.5L120,88Zm2.35,4.19c0-1.8,1-3.47,2.91-3.46s2.91,1.66,2.91,3.46-.87,3.45-2.91,3.45-2.91-1.69-2.91-3.45Zm-1.33,0c0,2.68,1.55,4.56,4.24,4.56s4.25-1.88,4.25-4.56-1.56-4.57-4.25-4.57S121,89.6,121,92.22Zm10,4.41h1.26V89h0l2.92,7.64h1.24L139.37,89h0v7.64h1.26V87.8h-2.09l-2.72,7.34-2.77-7.34H131v8.83Zm11.56,0h1.26V89h0l2.92,7.64H148L150.93,89h0v7.64h1.26V87.8h-2.09l-2.72,7.34-2.77-7.34h-2.08v8.83ZM161,87.8h-1.26v5c0,1.7-.53,2.86-2.17,2.86s-2.16-1.16-2.16-2.86v-5h-1.26V93c0,2.48,1.25,3.8,3.42,3.8S161,95.46,161,93V87.8Zm1.87,8.83h1.27V89.37h0l4,7.26h1.62V87.8h-1.26v7.11h0l-3.9-7.11h-1.72v8.83Zm8.77,0h1.26V87.8h-1.26v8.83Zm5.53,0h1.26V88.92h2.74V87.8h-6.75v1.12h2.75v7.71Zm7.86,0h1.27V92.94l3.44-5.14h-1.48l-2.57,4-2.63-4h-1.48L185,92.94v3.69ZM200.59,88a4.82,4.82,0,0,0-2-.38,4.4,4.4,0,0,0-4.67,4.53,4.35,4.35,0,0,0,4.66,4.6,5.48,5.48,0,0,0,2-.31l-.08-1.23a4.28,4.28,0,0,1-1.92.43,3.46,3.46,0,0,1,.06-6.91,3.51,3.51,0,0,1,1.82.5l.1-1.23Zm2.23,4.19c0-1.8,1-3.47,2.91-3.46s2.91,1.66,2.91,3.46-.87,3.45-2.91,3.45-2.91-1.69-2.91-3.45Zm-1.34,0c0,2.68,1.56,4.56,4.25,4.56S210,94.9,210,92.22s-1.57-4.57-4.25-4.57-4.25,1.95-4.25,4.57Zm9.9,4.41h5V95.52h-3.69V87.8h-1.27v8.83Zm6.45,0h5V95.52H219.1V87.8h-1.27v8.83Zm6.28,0h4.94V95.52h-3.68V92.61h3.35V91.5h-3.35V88.92h3.68V87.8h-4.94v8.83Zm13.52-8.53a6.51,6.51,0,0,0-2.59-.45,4.4,4.4,0,0,0-4.67,4.53,4.34,4.34,0,0,0,4.65,4.6,7.82,7.82,0,0,0,2.69-.39V91.8h-3.12v1h1.86v2.68a5.19,5.19,0,0,1-1.41.15,3.46,3.46,0,0,1,.06-6.91,4.11,4.11,0,0,1,2.43.61l.1-1.27Zm2,8.53h4.94V95.52h-3.68V92.61h3.35V91.5h-3.35V88.92h3.68V87.8h-4.94v8.83Z" transform="translate(-19 -18)"/>
  </g>
</svg>
