<?xml version="1.0" encoding="UTF-8" standalone="no"?>
<!DOCTYPE svg PUBLIC "-//W3C//DTD SVG 20010904//EN" "http://www.w3.org/TR/2001/REC-SVG-20010904/DTD/svg10.dtd">
<svg version="1.0" xmlns="http://www.w3.org/2000/svg" width="520.000000pt" height="520.000000pt" viewBox="0 0 520.000000 520.000000" preserveAspectRatio="xMidYMid meet">
<metadata>
Created by potrace 1.11, written by Peter Selinger 2001-2013
</metadata>
<g transform="translate(0.000000,520.000000) scale(0.100000,-0.100000)" fill="#032c4d" stroke="none">
<path d="M2610 4350 c-414 -24 -755 -105 -1045 -249 -379 -187 -624 -461 -758 -847 -134 -385 -138 -891 -12 -1272 206 -618 744 -1010 1535 -1118 152 -21 593 -24 800 -5 256 23 621 83 801 131 l39 11 0 939 0 940 -705 0 -705 0 0 -320 0 -320 265 0 265 0 0 -335 0 -335 -27 -11 c-124 -47 -359 -58 -543 -25 -553 99 -880 490 -880 1056 0 535 279 893 804 1029 145 38 214 49 384 61 309 20 605 -35 880 -165 50 -24 93 -43 93 -42 1 1 18 165 38 365 33 323 35 365 21 372 -28 15 -299 79 -418 99 -248 42 -556 57 -832 41z"/>
</g>
</svg>